<?xml version="1.0" standalone="no"?>
<!DOCTYPE svg PUBLIC "-//W3C//DTD SVG 20010904//EN"
 "http://www.w3.org/TR/2001/REC-SVG-20010904/DTD/svg10.dtd">
<svg version="1.0" xmlns="http://www.w3.org/2000/svg"
 width="887.000000pt" height="496.000000pt" viewBox="0 0 887.000000 496.000000"
 preserveAspectRatio="xMidYMid meet">

<g transform="translate(0.000000,496.000000) scale(0.100000,-0.100000)"
fill="#000000" stroke="none">
<path d="M0 2480 l0 -2480 4435 0 4435 0 0 2480 0 2480 -4435 0 -4435 0 0
-2480z m2205 2210 c0 -13 -93 -15 -775 -15 -731 0 -775 1 -778 18 -3 16 37 17
775 15 684 -3 778 -5 778 -18z m565 0 c0 -19 -7 -20 -189 -20 -116 0 -192 4
-196 10 -16 25 14 30 196 30 182 0 189 -1 189 -20z m-395 -230 c0 -13 -50 -15
-379 -18 -223 -1 -384 2 -389 7 -28 28 11 31 386 29 332 -3 382 -5 382 -18z
m-955 0 c0 -6 -133 -10 -380 -10 -247 0 -380 4 -380 10 0 6 133 10 380 10 247
0 380 -4 380 -10z m658 -232 c3 -17 -11 -18 -187 -18 -153 0 -191 3 -191 13 0
8 3 17 7 21 4 3 88 5 187 4 163 -3 181 -5 184 -20z m-1048 2 c0 -6 -68 -10
-185 -10 -117 0 -185 4 -185 10 0 6 68 10 185 10 117 0 185 -4 185 -10z m528
-2 c-4 -10 -53 -14 -191 -16 -162 -2 -187 0 -187 13 0 13 27 15 191 15 148 0
190 -3 187 -12z m427 -228 c0 -13 -28 -15 -184 -18 -105 -1 -189 2 -194 7 -26
26 9 31 191 29 158 -3 187 -5 187 -18z m483 3 c-3 -16 -21 -18 -182 -21 -117
-2 -183 1 -190 8 -23 23 23 30 197 30 165 0 178 -1 175 -17z m-1048 -3 c0 -6
-133 -10 -380 -10 -247 0 -380 4 -380 10 0 6 133 10 380 10 247 0 380 -4 380
-10z m5 -230 c0 -13 -51 -15 -387 -18 -320 -2 -388 0 -388 11 0 8 3 17 7 20 4
4 178 6 387 5 331 -3 381 -5 381 -18z m563 -2 c3 -17 -11 -18 -192 -18 -157 0
-196 3 -196 13 0 8 3 17 7 21 4 3 90 5 192 4 168 -3 186 -5 189 -20z m282
-1023 l0 -815 -810 0 -810 0 0 815 0 815 810 0 810 0 0 -815z m1988 441 c15
-8 36 -24 47 -36 19 -21 19 -22 1 -36 -17 -12 -22 -10 -48 11 -54 46 -138 24
-138 -35 0 -49 10 -59 101 -106 52 -27 98 -58 110 -75 27 -38 28 -112 2 -148
-58 -78 -198 -81 -268 -5 -53 57 -13 82 46 29 33 -30 46 -35 88 -35 66 0 101
27 101 79 0 47 -20 66 -116 115 -40 19 -81 47 -93 62 -26 33 -29 109 -5 143
33 46 119 65 172 37z m-1288 -192 c0 -158 -3 -202 -16 -229 -28 -59 -111 -82
-180 -49 -46 22 -63 53 -39 70 15 11 22 10 47 -11 41 -34 90 -34 117 1 20 25
21 40 21 220 l0 194 25 0 25 0 0 -196z m2119 147 c13 -24 -8 -55 -35 -49 -20
3 -30 29 -20 54 8 20 43 17 55 -5z m561 -61 l0 -80 40 0 c33 0 40 -3 40 -20 0
-17 -7 -20 -40 -20 l-41 0 3 -102 3 -103 36 -1 c60 -1 77 -22 34 -42 -40 -19
-74 -14 -100 13 -23 23 -25 31 -25 130 l0 105 -25 0 c-18 0 -25 5 -25 20 0 15
7 20 25 20 25 0 25 1 25 80 0 79 0 80 25 80 25 0 25 -1 25 -80z m-2368 -109
c27 -30 28 -35 28 -146 l0 -115 -25 0 c-17 0 -25 6 -25 17 0 15 -1 15 -19 -1
-22 -20 -80 -31 -115 -22 -66 16 -89 101 -40 147 21 20 38 24 100 27 70 4 74
5 74 28 0 39 -36 67 -77 61 -20 -4 -43 -13 -53 -22 -31 -28 -64 -9 -38 22 23
28 71 44 118 39 34 -3 51 -11 72 -35z m622 25 c46 -19 60 -60 61 -180 0 -99 0
-101 -24 -104 -13 -2 -27 2 -31 8 -6 9 -14 8 -34 -5 -19 -13 -39 -16 -73 -12
-84 9 -120 84 -69 144 21 25 31 28 100 31 67 4 76 6 76 24 0 60 -50 80 -117
47 -32 -15 -48 -18 -55 -11 -23 23 47 71 105 72 15 0 42 -6 61 -14z m746 -4
c19 -9 36 -24 38 -33 4 -23 -28 -33 -48 -14 -26 24 -94 19 -127 -9 -25 -21
-28 -31 -28 -81 0 -50 3 -60 28 -81 33 -29 100 -33 135 -8 18 13 26 13 38 4
17 -15 5 -34 -37 -56 -64 -33 -153 -7 -197 57 -20 28 -23 44 -20 92 5 66 26
101 78 128 43 24 95 24 140 1z m299 9 c7 -5 11 -17 7 -28 -5 -15 -13 -18 -44
-15 -62 6 -76 -19 -80 -144 -4 -102 -4 -104 -28 -104 l-24 0 0 145 0 145 25 0
c16 0 25 -6 25 -15 0 -8 5 -15 10 -15 6 0 10 4 10 8 0 23 73 39 99 23z m487
-16 c30 -20 63 -87 64 -130 0 -48 -40 -117 -80 -138 -45 -23 -113 -18 -144 12
-12 11 -25 21 -29 21 -4 0 -7 -45 -7 -101 0 -98 0 -100 -22 -97 -23 3 -23 3
-26 226 l-2 222 25 0 c20 0 25 -5 25 -27 l0 -27 28 26 c15 14 34 28 42 31 26
11 98 0 126 -18z m-1975 -52 c17 -38 38 -83 46 -102 l15 -35 46 102 c39 87 49
102 69 102 13 0 23 -3 23 -7 0 -13 -133 -293 -139 -293 -6 0 -141 281 -141
293 0 4 11 7 25 7 21 0 30 -11 56 -67z m1629 -78 l0 -145 -25 0 -25 0 0 145 0
145 25 0 25 0 0 -145z m-1823 -437 c19 -15 25 -65 12 -90 -16 -30 -28 -38 -63
-38 -42 0 -66 26 -66 70 0 65 67 98 117 58z m144 12 c5 0 9 -4 9 -10 0 -5 -15
-10 -33 -10 -40 0 -57 -15 -57 -50 0 -32 17 -50 47 -50 26 0 32 27 8 36 -24 9
-17 24 10 24 23 0 25 -4 25 -40 0 -40 0 -40 -39 -40 -61 0 -94 46 -71 100 12
29 53 52 78 44 8 -2 18 -4 23 -4z m1000 0 c5 0 9 -4 9 -10 0 -5 -16 -10 -35
-10 -44 0 -65 -34 -47 -75 15 -32 62 -36 62 -5 0 11 -7 20 -15 20 -8 0 -15 5
-15 10 0 6 14 10 31 10 29 0 30 -2 27 -37 -3 -36 -5 -38 -41 -41 -51 -4 -77
19 -77 68 0 47 41 86 78 74 8 -2 18 -4 23 -4z m600 0 c5 0 9 -4 9 -10 0 -5
-16 -10 -35 -10 -44 0 -65 -34 -47 -75 15 -32 62 -36 62 -5 0 11 -7 20 -15 20
-8 0 -15 5 -15 10 0 6 14 10 31 10 29 0 30 -2 27 -37 -3 -37 -4 -38 -44 -41
-35 -3 -45 1 -63 24 -11 15 -21 34 -21 43 0 38 56 86 88 75 8 -2 18 -4 23 -4z
m420 0 c5 0 9 -4 9 -10 0 -5 -15 -10 -33 -10 -40 0 -57 -15 -57 -50 0 -30 16
-50 41 -50 26 0 35 21 16 35 -24 17 -21 25 9 25 23 0 25 -3 22 -37 -2 -31 -7
-39 -27 -41 -63 -9 -98 25 -86 85 5 26 14 38 38 48 18 8 38 12 45 10 8 -3 18
-5 23 -5z m-2433 -12 c7 -7 12 -19 12 -27 0 -21 -30 -51 -52 -51 -13 0 -18 -7
-18 -25 0 -16 -6 -25 -15 -25 -12 0 -15 14 -15 70 l0 70 38 0 c21 0 43 -5 50
-12z m123 -9 c9 -17 8 -25 -5 -37 -14 -14 -13 -19 5 -49 18 -28 18 -33 5 -33
-9 0 -16 4 -16 8 0 5 -10 19 -22 32 l-23 24 -5 -28 c-3 -16 -11 -31 -17 -34
-10 -3 -13 15 -13 67 l0 71 40 0 c30 0 42 -5 51 -21z m419 6 c13 -15 5 -55
-11 -55 -6 0 -1 -14 12 -31 25 -36 30 -32 55 40 17 49 37 72 50 58 3 -3 17
-35 30 -71 17 -47 20 -66 11 -66 -7 0 -18 9 -25 20 -7 11 -21 20 -32 20 -10 0
-24 -9 -30 -20 -17 -32 -61 -26 -82 10 -22 38 -38 38 -38 0 0 -20 -5 -30 -15
-30 -12 0 -15 14 -15 70 l0 70 39 0 c21 0 44 -6 51 -15z m235 -36 c19 -56 23
-56 46 4 9 23 24 43 33 45 14 3 16 -7 16 -67 0 -82 -17 -97 -22 -18 l-3 52
-18 -52 c-10 -29 -23 -53 -28 -53 -5 0 -20 24 -33 53 l-24 52 -1 -52 c-1 -29
-5 -53 -11 -53 -6 0 -10 30 -10 70 0 62 2 70 19 70 14 0 24 -13 36 -51z m189
1 c10 -28 21 -48 25 -45 3 4 13 25 21 48 9 23 23 43 33 45 15 3 17 -6 17 -67
0 -41 -4 -71 -10 -71 -5 0 -10 21 -10 46 0 53 -11 51 -30 -5 -7 -23 -17 -41
-22 -41 -5 0 -19 21 -31 48 l-22 47 -3 -47 c-5 -74 -22 -56 -22 22 0 61 2 70
18 70 13 0 24 -15 36 -50z m156 -20 c0 -40 -4 -70 -10 -70 -6 0 -10 30 -10 70
0 40 4 70 10 70 6 0 10 -30 10 -70z m97 25 c15 -25 31 -45 36 -45 4 0 7 20 7
45 0 25 5 45 10 45 6 0 10 -30 10 -70 0 -87 -14 -91 -61 -18 l-34 53 -3 -53
c-4 -77 -22 -63 -22 18 0 85 15 91 57 25z m323 -15 c0 -57 1 -60 25 -60 14 0
25 -4 25 -10 0 -5 -18 -10 -40 -10 l-40 0 0 70 c0 56 3 70 15 70 12 0 15 -13
15 -60z m169 -5 c24 -68 22 -95 -5 -57 -20 28 -48 28 -67 0 -27 -41 -30 -11
-6 57 15 44 28 65 39 65 11 0 24 -21 39 -65z m110 18 c31 -48 31 -48 32 -18 2
53 4 58 17 62 9 4 12 -14 12 -66 0 -88 -15 -93 -62 -20 l-33 52 -3 -52 c-5
-76 -22 -62 -22 19 0 86 14 91 59 23z m263 -10 c3 -54 5 -58 28 -58 23 0 25 4
28 58 2 42 7 57 17 57 11 0 15 -13 15 -48 0 -58 -21 -92 -58 -92 -45 0 -55 14
-60 79 -4 51 -2 61 11 61 12 0 17 -13 19 -57z m206 -12 c23 -66 21 -92 -5 -53
-19 27 -49 29 -65 2 -7 -11 -18 -20 -25 -20 -11 0 1 46 32 123 14 34 39 13 63
-52z m262 59 c0 -5 -11 -10 -25 -10 -18 0 -25 -5 -25 -20 0 -15 7 -20 25 -20
14 0 25 -4 25 -10 0 -5 -11 -10 -25 -10 -18 0 -25 -5 -25 -20 0 -15 7 -20 25
-20 14 0 25 -4 25 -10 0 -5 -18 -10 -40 -10 l-40 0 0 70 0 70 40 0 c22 0 40
-4 40 -10z m-4035 -810 c0 -13 -28 -15 -184 -18 -121 -2 -188 1 -195 8 -23 23
23 30 199 27 152 -2 180 -4 180 -17z m470 8 c4 -4 4 -11 0 -17 -9 -15 -361
-15 -371 0 -3 6 0 15 7 20 16 10 354 7 364 -3z m-955 -8 c0 -6 -65 -10 -175
-10 -96 0 -178 0 -182 -1 -4 0 -9 4 -11 10 -3 8 54 11 182 11 117 0 186 -4
186 -10z m888 -237 c-3 -17 -30 -18 -373 -20 -204 -2 -376 1 -384 6 -42 27 8
31 380 31 357 0 380 -1 377 -17z m490 0 c3 -10 -39 -13 -187 -13 -175 0 -204
4 -184 24 4 3 88 5 187 4 133 -2 180 -6 184 -15z m-1378 -3 c0 -6 -68 -10
-185 -10 -117 0 -185 4 -185 10 0 6 68 10 185 10 117 0 185 -4 185 -10z m-16
-246 c45 -17 -2 -24 -169 -24 -169 0 -198 4 -178 23 8 9 326 9 347 1z m516 -9
c0 -13 -28 -15 -190 -15 -174 0 -203 4 -183 23 3 4 89 7 190 7 156 0 183 -2
183 -15z m868 -2 c3 -10 -78 -13 -382 -13 -338 0 -386 2 -386 15 0 13 47 15
382 13 294 -2 382 -6 386 -15z m457 -3 c0 -13 -28 -15 -184 -18 -105 -1 -189
2 -194 7 -26 26 9 31 191 29 158 -3 187 -5 187 -18z m473 3 c3 -10 -39 -13
-187 -13 -175 0 -204 4 -184 24 4 3 88 5 187 4 133 -2 180 -6 184 -15z m-2300
-210 c3 -10 -38 -13 -182 -13 -160 0 -186 2 -186 15 0 13 24 15 182 13 134 -2
182 -6 186 -15z m898 6 c3 -6 0 -15 -7 -20 -16 -10 -728 -13 -753 -3 -9 3 -16
12 -16 20 0 12 63 14 384 14 272 0 387 -3 392 -11z m-893 -206 c4 -3 2 -12 -4
-20 -9 -10 -51 -13 -179 -13 -176 0 -200 3 -200 26 0 11 34 14 188 14 104 0
192 -3 195 -7z m485 -10 c3 -10 -39 -13 -187 -13 -173 0 -213 5 -194 24 4 3
90 5 192 4 137 -2 185 -6 189 -15z m472 2 c0 -13 -28 -15 -190 -15 -162 0
-190 2 -190 15 0 13 28 15 190 15 162 0 190 -2 190 -15z m218 -207 c3 -17 -39
-18 -777 -18 -644 0 -781 2 -781 13 0 8 3 17 7 20 3 4 353 6 777 5 725 -3 771
-4 774 -20z m560 0 c3 -17 -11 -18 -186 -18 -104 0 -192 3 -195 7 -4 3 -2 12
4 20 9 11 50 13 193 11 163 -3 181 -5 184 -20z m-849 -197 c42 -27 -8 -31
-385 -31 -313 0 -384 2 -384 13 0 8 3 17 7 20 10 10 746 8 762 -2z m970 0 c37
-24 -6 -31 -184 -31 -176 0 -206 5 -190 30 8 12 354 13 374 1z m-1861 -13 c-7
-19 -359 -19 -365 0 -4 9 37 12 182 12 145 0 186 -3 183 -12z m1382 -3 c0 -13
-25 -15 -187 -13 -138 2 -187 6 -191 16 -3 9 39 12 187 12 164 0 191 -2 191
-15z"/>
<path d="M1790 2800 c-166 -57 -189 -266 -41 -371 20 -15 70 -41 111 -58 92
-40 120 -64 120 -106 0 -87 -130 -102 -212 -25 l-41 40 -58 -32 c-33 -18 -59
-39 -59 -46 0 -7 22 -35 48 -61 61 -61 128 -86 232 -86 162 1 263 98 247 236
-13 104 -63 158 -207 220 -41 17 -86 42 -99 54 -30 29 -31 73 -1 97 34 27 74
23 115 -13 l35 -32 55 37 c30 20 55 41 55 46 0 25 -81 90 -131 104 -68 20
-101 20 -169 -4z"/>
<path d="M1370 2525 l0 -286 -25 -24 c-39 -40 -91 -29 -134 27 l-22 27 -59
-36 c-33 -19 -60 -38 -60 -40 0 -3 9 -20 20 -38 71 -115 280 -137 376 -41 58
58 65 105 62 417 l-3 274 -77 3 -78 3 0 -286z"/>
<path d="M3128 2829 c-27 -15 -22 -56 7 -75 49 -32 125 3 125 58 0 28 -1 28
-57 28 -32 0 -66 -5 -75 -11z"/>
<path d="M3776 2824 c-40 -39 5 -92 69 -80 44 9 65 30 65 67 0 29 0 29 -59 29
-41 0 -65 -5 -75 -16z"/>
<path d="M5287 2949 c-23 -13 -47 -62 -47 -94 0 -34 25 -82 49 -95 29 -15 93
-12 118 5 12 8 27 31 33 51 15 46 0 106 -33 129 -24 17 -93 20 -120 4z"/>
<path d="M3184 2396 c-10 -25 0 -69 19 -80 37 -23 77 43 46 80 -15 18 -58 18
-65 0z"/>
<path d="M2940 2384 c0 -33 33 -30 38 4 3 17 -2 22 -17 22 -16 0 -21 -6 -21
-26z"/>
<path d="M3060 2389 c0 -25 33 -22 38 4 2 12 -3 17 -17 17 -15 0 -21 -6 -21
-21z"/>
<path d="M3480 2390 c0 -13 7 -20 20 -20 13 0 20 7 20 20 0 13 -7 20 -20 20
-13 0 -20 -7 -20 -20z"/>
<path d="M3627 2383 c-12 -12 -7 -33 8 -33 17 0 19 9 7 28 -5 7 -11 9 -15 5z"/>
<path d="M4656 2374 c-9 -23 -8 -24 13 -24 14 0 18 5 14 20 -6 24 -19 26 -27
4z"/>
<path d="M5236 2385 c-10 -26 -7 -35 9 -35 17 0 19 18 6 38 -7 11 -10 10 -15
-3z"/>
</g>
</svg>
