<?xml version="1.0" standalone="no"?>
<!DOCTYPE svg PUBLIC "-//W3C//DTD SVG 20010904//EN"
 "http://www.w3.org/TR/2001/REC-SVG-20010904/DTD/svg10.dtd">
<svg version="1.0" xmlns="http://www.w3.org/2000/svg"
 width="764.000000pt" height="401.000000pt" viewBox="0 0 764.000000 401.000000"
 preserveAspectRatio="xMidYMid meet">

<g transform="translate(0.000000,401.000000) scale(0.100000,-0.100000)"
fill="#000000" stroke="none">
<path d="M0 2005 l0 -2005 3820 0 3820 0 0 2005 0 2005 -3820 0 -3820 0 0
-2005z m3888 1703 c17 -17 17 -3389 0 -3406 -9 -9 -431 -12 -1839 -12 -1005 0
-1834 3 -1843 6 -15 6 -16 165 -16 1709 0 1353 3 1704 13 1708 6 3 836 6 1842
6 1412 1 1834 -2 1843 -11z m1292 -1052 l54 -188 23 83 c20 75 46 163 75 257
7 22 16 32 30 32 15 0 18 -4 13 -17 -3 -10 -34 -114 -67 -231 -36 -125 -66
-211 -72 -209 -10 3 -48 116 -101 302 -13 44 -25 73 -28 65 -7 -18 -85 -278
-99 -333 -20 -73 -30 -52 -112 241 -25 89 -46 167 -46 173 0 21 34 4 41 -21 4
-14 27 -95 52 -180 l44 -155 31 100 c17 55 43 140 57 188 16 54 31 87 38 84 7
-2 37 -88 67 -191z m1083 -28 c53 -123 97 -226 97 -230 0 -5 -7 -8 -16 -8 -10
0 -26 23 -42 60 l-27 60 -121 0 -121 0 -26 -60 c-16 -37 -32 -60 -41 -60 -9 0
-16 4 -16 10 0 22 195 450 205 450 6 0 55 -100 108 -222z m-733 112 l0 -100
140 0 140 0 0 100 c0 93 1 100 20 100 19 0 20 -7 20 -225 0 -218 -1 -225 -20
-225 -19 0 -20 7 -20 110 l0 110 -140 0 -140 0 0 -111 c0 -100 -2 -110 -17
-107 -16 3 -18 22 -21 213 -1 115 0 215 2 222 3 7 12 13 21 13 12 0 15 -17 15
-100z m1140 85 c0 -12 -14 -15 -65 -15 l-65 0 0 -211 c0 -195 -1 -210 -17
-207 -16 3 -18 22 -21 211 l-2 207 -60 0 c-55 0 -78 9 -63 24 3 3 71 6 150 6
120 0 143 -2 143 -15z m-1025 -830 l0 -105 -30 0 -30 0 0 105 0 105 30 0 30 0
0 -105z m274 91 c8 -5 6 -14 -5 -31 -15 -23 -18 -23 -37 -10 -28 20 -97 20
-97 1 0 -10 16 -17 48 -21 69 -10 81 -14 93 -37 37 -68 -68 -122 -167 -85 -27
10 -30 15 -23 34 7 21 9 21 52 5 37 -13 50 -14 72 -4 38 17 24 28 -44 36 -65
7 -83 22 -83 63 0 47 36 66 113 61 37 -3 71 -8 78 -12z m-602 -466 c41 -18 63
-43 49 -57 -3 -3 -30 6 -60 20 -64 32 -115 34 -171 8 -78 -35 -122 -115 -112
-202 16 -137 156 -208 283 -144 50 25 79 20 54 -10 -25 -31 -84 -50 -151 -50
-56 0 -73 5 -115 30 -64 40 -106 107 -112 181 -9 110 50 196 160 236 60 21
108 18 175 -12z m378 19 c50 -13 74 -34 58 -50 -8 -8 -20 -6 -41 5 -51 26
-109 21 -143 -13 -32 -32 -35 -47 -18 -85 11 -24 32 -37 109 -67 114 -44 153
-105 116 -178 -41 -78 -177 -93 -253 -26 -25 21 -26 24 -10 30 9 4 24 2 32 -5
8 -6 35 -18 60 -26 41 -12 51 -12 82 1 94 40 80 125 -28 164 -82 30 -124 57
-143 92 -23 42 -17 74 20 118 38 46 88 58 159 40z m405 1 c50 -14 78 -36 64
-50 -7 -7 -21 -6 -47 5 -64 26 -145 11 -161 -30 -22 -57 13 -103 97 -131 120
-39 167 -103 132 -178 -20 -41 -82 -76 -136 -76 -37 0 -139 45 -139 61 0 19
28 19 61 0 60 -35 120 -31 161 9 24 25 29 36 23 58 -10 42 -31 59 -107 88 -38
14 -82 37 -98 51 -61 51 -44 144 33 182 47 23 66 25 117 11z m385 -4 c40 -17
55 -42 55 -89 0 -30 -8 -42 -47 -77 -33 -28 -50 -52 -53 -73 -3 -20 -12 -33
-22 -35 -15 -3 -18 4 -18 32 0 31 8 45 56 91 47 45 55 57 48 77 -4 13 -14 28
-23 35 -25 19 -85 15 -114 -7 -31 -25 -50 -26 -45 -2 3 18 81 62 110 62 10 0
34 -6 53 -14z m-41 -419 c8 -14 8 -20 -4 -27 -22 -14 -40 -12 -46 5 -16 41 27
60 50 22z"/>
<path d="M290 3645 c-10 -12 -10 -18 0 -30 16 -19 39 -19 46 0 6 15 -11 45
-26 45 -4 0 -13 -7 -20 -15z"/>
<path d="M212 1928 l3 -1613 1830 0 1830 0 3 1613 2 1612 -1835 0 -1835 0 2
-1612z m528 1252 c0 -5 -6 -10 -14 -10 -19 0 -15 -98 4 -110 12 -8 10 -10 -7
-10 -19 0 -23 6 -23 29 0 16 -6 32 -12 35 -10 5 -10 7 0 12 6 3 12 16 12 28 0
13 3 26 7 29 10 11 33 8 33 -3z m-172 -63 c-2 -22 -10 -35 -25 -42 -13 -5 -23
-16 -23 -23 0 -7 -4 -10 -10 -7 -5 3 -10 28 -10 54 l0 48 36 1 c34 1 35 0 32
-31z m310 -170 c2 -26 7 -47 13 -47 5 0 9 -4 9 -10 0 -5 -9 -10 -20 -10 -17 0
-20 7 -20 50 0 28 -4 50 -10 50 -5 0 -10 5 -10 11 0 6 8 9 18 7 13 -2 18 -15
20 -51z m662 7 c0 -33 5 -51 18 -60 16 -12 15 -13 -5 -14 -21 0 -23 5 -23 50
0 28 -4 50 -10 50 -5 0 -10 5 -10 10 0 6 7 10 15 10 11 0 15 -12 15 -46z
m-250 21 c0 -8 7 -15 15 -15 8 0 15 -4 15 -10 0 -5 -7 -10 -16 -10 -10 0 -14
-7 -12 -22 2 -13 9 -22 16 -20 6 1 12 -2 12 -8 0 -5 -9 -10 -20 -10 -15 0 -22
9 -26 30 -4 17 -10 30 -14 30 -5 0 -3 11 3 25 13 28 27 33 27 10z m-570 -24
c-32 -9 -34 -45 -2 -49 30 -5 28 -22 -3 -22 -17 0 -29 8 -37 25 -14 31 4 55
41 54 l26 -1 -25 -7z m95 -31 c0 -28 -4 -36 -21 -38 -28 -4 -48 22 -40 54 5
20 12 25 34 22 24 -3 27 -7 27 -38z m170 6 c0 -36 -26 -56 -49 -37 -16 14 -22
52 -9 65 4 4 19 6 33 4 20 -2 25 -8 25 -32z m85 16 c0 -14 -2 -14 -9 -3 -13
21 -31 4 -31 -30 0 -16 -4 -29 -10 -29 -5 0 -10 17 -10 38 0 36 2 39 30 40 22
0 30 -4 30 -16z m70 8 c0 -5 -7 -10 -15 -10 -8 0 -15 5 -15 10 0 6 7 10 15 10
8 0 15 -4 15 -10z m268 -12 c3 -14 -3 -18 -23 -18 -17 0 -25 -5 -22 -12 2 -7
14 -12 26 -11 13 2 20 -1 16 -7 -12 -19 -45 -10 -57 15 -8 19 -8 28 2 40 17
20 54 15 58 -7z m82 -15 c0 -35 -2 -38 -29 -40 -22 -2 -32 3 -36 17 -9 29 12
60 40 60 22 0 25 -4 25 -37z m150 27 c0 -5 -4 -10 -9 -10 -6 0 -13 5 -16 10
-3 6 1 10 9 10 9 0 16 -4 16 -10z m-505 -60 c-3 -5 -10 -10 -16 -10 -5 0 -9 5
-9 10 0 6 7 10 16 10 8 0 12 -4 9 -10z m505 -4 c0 -24 -17 -28 -23 -6 -3 13 0
20 9 20 8 0 14 -6 14 -14z m-60 -86 c0 -5 -7 -10 -15 -10 -21 0 -19 -28 3 -33
14 -4 13 -5 -4 -6 -17 -1 -20 -6 -17 -25 3 -13 0 -27 -6 -30 -7 -5 -11 4 -11
23 0 16 -5 31 -11 33 -6 2 1 16 15 31 25 27 46 35 46 17z m-857 -41 c21 -2 21
-2 -1 -6 -17 -3 -22 -10 -20 -26 2 -14 10 -21 21 -21 9 1 17 -3 17 -8 0 -5
-10 -8 -22 -6 -17 2 -24 11 -26 31 -2 15 -7 27 -12 27 -4 0 -3 11 3 25 11 23
12 23 15 5 2 -12 12 -21 25 -21z m253 0 c17 -7 17 -8 -4 -8 -18 -1 -23 -6 -20
-23 2 -15 9 -22 21 -22 9 1 17 -3 17 -8 0 -5 -10 -8 -22 -6 -17 2 -24 11 -26
31 -2 15 -7 27 -12 27 -4 0 -3 11 3 25 10 20 13 21 18 8 3 -9 14 -20 25 -24z
m167 0 c21 -2 21 -2 -1 -6 -17 -3 -22 -10 -20 -26 2 -14 10 -21 21 -21 9 1 17
-3 17 -8 0 -5 -10 -8 -22 -6 -17 2 -24 11 -26 31 -2 15 -7 27 -12 27 -4 0 -3
11 3 25 11 23 12 23 15 5 2 -12 12 -21 25 -21z m-325 -11 c3 -13 -3 -18 -22
-18 -14 0 -26 -4 -26 -10 0 -10 14 -14 38 -11 6 1 12 -3 12 -9 0 -5 -11 -10
-25 -10 -32 0 -50 32 -35 61 14 24 53 22 58 -3z m47 12 c5 -8 11 -7 21 1 8 6
17 10 19 7 3 -3 -1 -11 -9 -17 -14 -11 -13 -16 1 -37 10 -16 11 -24 4 -24 -6
0 -14 7 -18 15 -5 14 -8 14 -24 -1 -21 -19 -27 -6 -7 14 9 9 9 15 0 24 -7 7
-12 16 -12 20 0 12 18 10 25 -2z m375 -7 c0 -12 -3 -13 -13 -4 -18 14 -27 4
-27 -31 0 -15 -4 -28 -10 -28 -5 0 -10 17 -10 38 0 36 2 39 30 40 21 0 30 -4
30 -15z m90 -22 c0 -38 -1 -39 -32 -38 -26 2 -34 7 -36 25 -5 30 14 52 44 52
21 0 24 -5 24 -39z m78 -3 c2 -22 -1 -38 -7 -38 -6 0 -11 16 -11 36 0 31 -2
35 -15 24 -8 -7 -15 -23 -15 -36 0 -13 -4 -24 -10 -24 -5 0 -10 18 -10 39 0
38 1 39 33 38 29 -2 32 -5 35 -39z m77 32 c-3 -5 -12 -7 -20 -3 -8 3 -15 0
-15 -5 0 -6 9 -14 21 -17 29 -10 20 -39 -14 -43 -15 -2 -27 2 -27 8 0 7 8 9
20 5 26 -8 25 2 -2 24 -25 21 -17 41 18 41 14 0 23 -4 19 -10z m170 -30 c0
-38 -24 -52 -50 -30 -31 25 -9 73 30 68 16 -2 20 -11 20 -38z m95 25 c0 -8 -4
-15 -10 -15 -5 0 -10 5 -10 11 0 22 -29 -12 -33 -39 -3 -19 -4 -15 -6 13 -1
38 1 41 29 43 21 2 30 -2 30 -13z m88 -19 c2 -16 -1 -33 -7 -39 -8 -8 -11 -1
-11 23 0 38 -15 31 -23 -10 -3 -20 -5 -18 -6 10 -1 37 -16 32 -24 -10 -3 -17
-5 -11 -6 16 l-1 41 38 -1 c33 -1 37 -4 40 -30z m52 24 c0 -5 -4 -10 -10 -10
-5 0 -10 5 -10 10 0 6 5 10 10 10 6 0 10 -4 10 -10z m140 -20 c0 -20 5 -30 15
-30 10 0 15 10 15 30 0 17 5 30 10 30 6 0 10 -17 10 -37 0 -34 -3 -38 -27 -40
-16 0 -31 4 -35 10 -11 18 -10 67 2 67 6 0 10 -13 10 -30z m134 14 c8 -20 -19
-64 -38 -64 -8 0 -17 -8 -19 -17 -3 -10 -5 7 -6 37 -1 55 0 56 28 58 19 1 31
-3 35 -14z m81 -19 c0 -22 -6 -33 -22 -40 -13 -5 -23 -15 -23 -22 0 -7 -4 -13
-10 -13 -5 0 -10 24 -10 54 l0 54 33 -1 c29 -2 32 -5 32 -32z m83 13 c3 -14
-3 -18 -23 -18 -23 0 -25 -2 -15 -14 6 -8 18 -12 26 -9 8 3 14 0 14 -6 0 -6
-11 -11 -25 -11 -32 0 -50 32 -35 61 14 24 53 22 58 -3z m92 7 c0 -8 -4 -15
-10 -15 -5 0 -10 5 -10 11 0 8 -5 8 -15 -1 -8 -7 -15 -23 -15 -37 0 -14 -4
-21 -10 -18 -5 3 -10 21 -10 39 0 31 2 33 35 34 25 1 35 -3 35 -13z m80 5 c0
-5 -6 -7 -13 -4 -8 3 -20 -2 -27 -11 -10 -12 -10 -18 0 -30 7 -9 19 -14 27
-11 7 3 13 1 13 -5 0 -6 -12 -9 -27 -7 -29 3 -41 32 -29 64 6 16 56 20 56 4z
m82 -28 c3 -38 2 -39 -28 -40 -37 -2 -48 16 -34 53 7 17 17 25 34 25 20 0 24
-5 28 -38z m78 28 c0 -5 -7 -7 -15 -4 -22 9 -18 -5 7 -25 12 -10 18 -23 14
-29 -9 -15 -53 -16 -61 -2 -4 7 2 9 19 4 31 -7 36 11 6 21 -30 10 -26 45 5 45
14 0 25 -4 25 -10z m88 -12 c3 -14 -3 -18 -23 -18 -23 0 -25 -2 -15 -14 6 -8
18 -12 26 -9 8 3 14 0 14 -6 0 -6 -11 -11 -25 -11 -32 0 -50 32 -35 61 14 24
53 22 58 -3z m62 12 c0 -5 -4 -10 -10 -10 -5 0 -10 5 -10 10 0 6 5 10 10 10 6
0 10 -4 10 -10z m-1752 -27 c-10 -2 -26 -2 -35 0 -10 3 -2 5 17 5 19 0 27 -2
18 -5z m832 -33 c0 -5 -4 -10 -10 -10 -5 0 -10 5 -10 10 0 6 5 10 10 10 6 0
10 -4 10 -10z m926 -1 c3 -6 0 -18 -9 -26 -13 -13 -14 -12 -14 11 0 27 11 34
23 15z m-2106 -138 c0 -30 5 -51 13 -54 6 -3 2 -6 -10 -6 -21 -1 -23 4 -23 48
0 30 -5 51 -12 54 -7 3 -3 6 10 6 20 1 22 -4 22 -48z m1360 14 c0 -21 5 -35
13 -36 10 0 10 -2 0 -6 -7 -2 -13 -11 -13 -19 0 -8 -4 -14 -10 -14 -5 0 -10 7
-10 15 0 8 -9 15 -20 15 -25 0 -25 5 1 46 26 43 39 43 39 -1z m-1200 10 c0 -8
10 -16 23 -16 l22 -2 -22 -4 c-15 -3 -23 -12 -23 -24 0 -11 10 -24 23 -29 22
-9 22 -9 -4 -9 -21 -1 -28 5 -35 32 -11 35 -8 67 7 67 5 0 9 -7 9 -15z m110
-18 c9 -3 6 -6 -8 -6 -18 -1 -23 -6 -20 -23 2 -15 9 -22 21 -22 9 1 17 -3 17
-8 0 -5 -10 -8 -22 -6 -16 2 -24 11 -27 28 -1 14 -8 28 -15 32 -8 6 -8 8 2 8
6 0 12 8 12 17 0 15 1 15 13 1 6 -9 19 -18 27 -21z m-162 -9 c3 -14 -3 -18
-23 -18 -17 0 -25 -5 -22 -12 2 -7 14 -12 26 -11 11 2 21 -2 21 -7 0 -6 -11
-10 -25 -10 -32 0 -50 32 -35 61 14 24 53 22 58 -3z m250 0 c3 -14 -3 -18 -23
-18 -17 0 -25 -5 -22 -12 2 -7 14 -13 26 -12 11 0 21 -3 21 -8 0 -4 -11 -8
-25 -8 -32 0 -50 32 -35 61 14 24 53 22 58 -3z m92 6 c0 -11 -6 -14 -20 -9
-15 5 -21 0 -29 -27 l-9 -33 -1 40 c-1 38 1 41 29 43 22 2 30 -2 30 -14z m160
6 c0 -5 -6 -7 -14 -4 -26 10 -26 -13 0 -25 14 -6 24 -17 22 -24 -6 -16 -68
-22 -68 -7 0 7 8 9 19 5 29 -9 34 10 6 23 -25 12 -31 23 -18 35 10 11 53 8 53
-3z m85 -25 c0 -22 -6 -33 -22 -40 -13 -5 -23 -15 -23 -22 0 -7 -4 -13 -10
-13 -5 0 -10 24 -10 54 l0 54 33 -1 c29 -2 32 -5 32 -32z m85 -3 c0 -35 -2
-38 -30 -40 -36 -3 -48 18 -32 54 8 16 20 24 37 24 22 0 25 -4 25 -38z m90 28
c0 -6 -6 -10 -12 -9 -28 3 -38 -2 -38 -21 0 -19 10 -24 38 -21 6 1 12 -3 12
-9 0 -14 -43 -13 -58 2 -27 27 -6 68 35 68 13 0 23 -5 23 -10z m50 -24 c0 -19
6 -37 13 -39 7 -3 5 -6 -5 -6 -13 -1 -18 7 -18 29 0 17 -4 30 -10 30 -5 0 -10
5 -10 10 0 6 7 10 15 10 10 0 15 -10 15 -34z m118 -8 c2 -22 -1 -38 -7 -38 -6
0 -11 14 -11 30 0 20 -5 30 -15 30 -10 0 -15 -10 -15 -30 0 -16 -4 -30 -10
-30 -5 0 -10 18 -10 39 0 38 1 39 33 38 29 -2 32 -5 35 -39z m82 3 c0 -57 -8
-71 -41 -71 -16 0 -29 4 -29 10 0 5 10 9 21 7 12 -1 24 3 26 10 3 7 -3 9 -16
6 -26 -7 -38 20 -23 53 8 16 20 24 37 24 22 0 25 -4 25 -39z m60 29 c0 -5 -4
-10 -10 -10 -5 0 -10 5 -10 10 0 6 5 10 10 10 6 0 10 -4 10 -10z m274 -5 c8
-22 -14 -65 -35 -65 -10 0 -20 -8 -22 -17 -3 -10 -5 7 -6 37 -1 55 0 56 28 58
18 1 31 -3 35 -13z m42 4 c4 -8 9 -8 17 0 18 18 28 12 17 -10 -9 -15 -8 -24 1
-35 6 -8 9 -17 5 -21 -3 -4 -13 2 -20 13 -14 18 -15 18 -21 2 -4 -10 -11 -18
-16 -18 -5 0 -4 11 3 25 8 19 8 28 -2 40 -8 9 -8 15 -2 15 6 0 14 -5 18 -11z
m104 1 c0 -5 -4 -10 -10 -10 -5 0 -10 5 -10 10 0 6 5 10 10 10 6 0 10 -4 10
-10z m-1082 -27 c-10 -2 -26 -2 -35 0 -10 3 -2 5 17 5 19 0 27 -2 18 -5z m662
-33 c0 -5 -4 -10 -10 -10 -5 0 -10 5 -10 10 0 6 5 10 10 10 6 0 10 -4 10 -10z
m420 -9 c0 -11 -4 -22 -9 -25 -5 -3 -8 6 -8 19 0 14 3 25 8 25 5 0 9 -9 9 -19z
m-1765 -112 c-4 -13 -1 -21 10 -26 16 -6 16 -7 1 -15 -10 -6 -15 -17 -11 -27
6 -19 -20 -49 -32 -37 -4 4 -2 10 4 14 11 7 16 36 14 85 -1 17 -7 27 -17 27
-8 0 -12 5 -9 10 11 18 47 -9 40 -31z m353 -356 c-22 -6 -21 -102 2 -120 13
-11 13 -12 0 -13 -22 0 -40 20 -33 37 3 8 -3 20 -13 28 -18 14 -18 14 0 15 14
0 17 5 12 24 -7 28 0 36 28 35 16 -1 17 -2 4 -6z m-358 -57 c0 -19 6 -37 13
-39 7 -3 5 -6 -5 -6 -13 -1 -18 7 -18 29 0 17 -4 30 -10 30 -5 0 -10 5 -10 10
0 6 7 10 15 10 10 0 15 -10 15 -34z m116 -12 c1 -32 1 -33 -3 -6 -5 40 -23 42
-23 2 0 -41 -20 -38 -22 3 l-1 32 -4 -32 c-6 -45 -23 -41 -23 5 0 37 1 38 38
37 36 -1 37 -2 38 -41z m84 4 c0 -24 -4 -48 -8 -55 -11 -17 -62 -21 -62 -4 0
4 11 6 25 3 14 -2 25 0 25 6 0 6 -10 12 -22 14 -47 6 -30 78 18 78 22 0 24 -4
24 -42z m50 -128 c0 -5 -2 -10 -4 -10 -3 0 -8 5 -11 10 -3 6 -1 10 4 10 6 0
11 -4 11 -10z m120 -46 c0 -45 -3 -55 -15 -51 -8 4 -17 2 -20 -3 -3 -5 -12 -6
-21 -3 -24 9 -14 66 14 78 12 5 22 15 22 22 0 7 5 13 10 13 6 0 10 -25 10 -56z
m133 19 c19 2 22 -3 24 -38 1 -35 1 -36 -5 -10 -9 38 -36 40 -40 3 -5 -47 -22
-31 -22 20 0 50 13 80 18 43 2 -14 10 -20 25 -18z m275 -66 c9 -3 -1 -5 -23
-5 -22 0 -34 2 -27 5 6 2 12 20 12 39 0 20 -5 34 -12 34 -7 0 -4 7 7 16 19 14
20 13 23 -35 2 -37 7 -51 20 -54z m80 91 c17 -17 15 -83 -2 -97 -11 -9 -20
-10 -35 -1 -36 19 -24 110 14 110 6 0 16 -5 23 -12z m86 -4 c9 -8 16 -11 16
-5 0 6 9 11 20 11 12 0 20 -7 20 -17 0 -15 4 -13 20 7 24 30 26 19 4 -15 -14
-22 -14 -25 -1 -25 17 0 26 -18 20 -37 -6 -18 -32 -16 -39 2 -5 12 -10 10 -25
-8 -22 -26 -25 -11 -4 17 11 15 12 22 3 27 -7 4 -17 -5 -27 -24 -19 -37 -33
-43 -55 -22 -18 19 -21 57 -6 86 13 23 33 24 54 3z m-511 -27 l22 -4 -22 -8
c-29 -9 -30 -33 -1 -44 13 -4 17 -10 11 -14 -19 -12 -43 4 -43 27 0 12 -5 27
-12 34 -9 9 -9 12 0 12 7 0 13 8 13 18 1 15 2 15 6 0 2 -9 14 -19 26 -21z
m-243 -19 c0 12 4 22 8 22 4 0 6 -16 4 -35 -5 -40 -19 -46 -31 -13 l-8 22 -5
-22 c-7 -27 -28 -29 -28 -3 0 11 -3 26 -6 35 -3 9 -1 16 5 16 6 0 11 -8 12
-17 0 -13 3 -11 11 7 l10 25 14 -30 c12 -26 13 -27 14 -7z m60 -2 c0 -19 6
-37 13 -39 6 -3 2 -6 -10 -6 -18 -1 -23 5 -23 23 0 13 -3 31 -6 40 -4 11 -1
16 10 16 12 0 16 -9 16 -34z m344 13 c-3 -5 -10 -7 -15 -3 -5 3 -7 10 -3 15 3
5 10 7 15 3 5 -3 7 -10 3 -15z m500 0 c-3 -5 -10 -7 -15 -3 -5 3 -7 10 -3 15
3 5 10 7 15 3 5 -3 7 -10 3 -15z m-500 -60 c-3 -5 -10 -7 -15 -3 -5 3 -7 10
-3 15 3 5 10 7 15 3 5 -3 7 -10 3 -15z m503 -13 c-14 -36 -26 -12 -18 34 1 2
6 -1 12 -7 7 -7 9 -19 6 -27z m-947 -87 c0 -14 5 -19 14 -16 7 3 19 0 25 -6
14 -14 15 -67 1 -67 -5 0 -10 14 -10 31 0 38 -24 35 -28 -4 -6 -49 -22 -28
-22 28 0 30 5 55 10 55 6 0 10 -9 10 -21z m190 11 c0 -5 -4 -10 -10 -10 -5 0
-10 5 -10 10 0 6 5 10 10 10 6 0 10 -4 10 -10z m142 -79 c-2 -17 -8 -28 -13
-25 -11 6 -12 98 -2 108 11 11 21 -45 15 -83z m121 46 l22 -4 -22 -8 c-30 -10
-31 -45 -1 -45 16 0 19 -3 11 -11 -18 -18 -43 -3 -43 25 0 13 -6 27 -12 30
-10 5 -10 7 0 12 6 3 13 13 13 22 1 16 2 16 6 0 2 -9 14 -19 26 -21z m397 18
c0 -8 7 -15 15 -15 8 0 15 -4 15 -10 0 -5 -7 -10 -15 -10 -8 0 -15 -9 -15 -20
0 -14 7 -20 22 -20 17 0 19 -3 10 -12 -27 -27 -68 34 -55 82 6 23 23 27 23 5z
m-732 -17 c20 -20 14 -38 -15 -38 -30 0 -22 -15 12 -22 19 -5 19 -5 2 -13 -12
-5 -24 -1 -37 10 -24 22 -25 33 -3 57 19 21 25 22 41 6z m70 -26 c2 -18 8 -32
15 -32 8 0 8 -3 0 -11 -17 -17 -33 -1 -33 32 0 16 -5 29 -11 29 -5 0 -7 5 -4
11 12 19 30 3 33 -29z m110 -15 c3 -42 1 -48 -23 -59 -19 -9 -28 -9 -37 0 -9
9 -6 12 15 12 15 0 27 5 27 11 0 5 -5 7 -10 4 -14 -9 -40 13 -40 33 0 22 31
53 49 50 11 -2 17 -17 19 -51z m78 2 c1 -31 0 -35 -3 -11 -2 18 -11 36 -19 39
-16 6 -8 26 9 20 7 -2 13 -23 13 -48z m148 30 c-3 -5 -10 -7 -15 -3 -5 3 -7
10 -3 15 3 5 10 7 15 3 5 -3 7 -10 3 -15z m194 -24 c3 -37 1 -41 -21 -40 -48
2 -63 37 -31 70 27 27 49 15 52 -30z m41 -25 c15 0 33 30 28 45 -4 8 -2 17 3
20 6 4 10 -12 10 -37 0 -39 -3 -44 -22 -43 -34 0 -48 13 -48 44 0 42 15 48 18
7 2 -20 7 -36 11 -36z m199 58 c30 -30 -2 -93 -36 -71 -21 13 -27 50 -12 69
15 17 32 18 48 2z m72 -9 c0 -5 -4 -9 -10 -9 -5 0 -10 7 -10 16 0 8 5 12 10 9
6 -3 10 -10 10 -16z m-506 -60 c-3 -5 -10 -7 -15 -3 -5 3 -7 10 -3 15 3 5 10
7 15 3 5 -3 7 -10 3 -15z m506 -4 c0 -14 -4 -25 -8 -25 -4 0 -9 11 -10 25 -1
14 3 25 8 25 6 0 10 -11 10 -25z m-1030 -102 c0 -9 6 -13 14 -10 17 7 36 -11
36 -34 0 -23 -27 -49 -51 -49 -17 0 -19 7 -19 61 0 37 4 58 10 54 6 -3 10 -13
10 -22z m300 -31 c0 -56 -1 -58 -26 -57 -48 0 -60 60 -14 72 11 3 20 14 20 24
0 11 5 19 10 19 6 0 10 -26 10 -58z m500 0 c0 -55 -1 -58 -25 -57 -13 0 -29 5
-35 11 -17 17 -2 54 26 64 13 5 24 16 24 25 0 8 2 15 5 15 3 0 5 -26 5 -58z
m60 48 c0 -5 -4 -10 -10 -10 -5 0 -10 5 -10 10 0 6 5 10 10 10 6 0 10 -4 10
-10z m438 -16 c2 -11 -6 -28 -18 -39 -27 -24 -25 -35 6 -35 14 0 23 -4 19 -10
-3 -5 -19 -10 -36 -10 -37 0 -39 27 -4 60 32 30 32 40 -2 40 -22 0 -25 2 -13
10 22 15 45 7 48 -16z m-1168 -48 c0 -32 -26 -53 -48 -39 -24 14 -27 54 -7 70
24 17 55 -1 55 -31z m85 14 c-6 -9 -9 -9 -16 1 -11 18 -20 7 -29 -33 -8 -33
-8 -33 -9 10 -1 24 3 41 7 38 4 -2 14 -1 22 4 18 11 35 -3 25 -20z m153 18
c20 -20 14 -38 -15 -38 -30 0 -22 -15 12 -22 19 -5 19 -5 2 -13 -13 -5 -25 -2
-39 13 -20 20 -20 22 -4 46 18 29 27 31 44 14z m102 -15 c0 -12 -3 -13 -14 -4
-16 14 -32 -2 -39 -39 -3 -16 -5 -10 -6 18 0 24 3 41 7 38 4 -2 14 -1 22 4 17
11 30 4 30 -17z m165 -3 c-6 -9 -9 -9 -16 1 -11 18 -20 7 -29 -33 -8 -33 -8
-33 -9 10 -1 24 3 41 7 38 4 -2 14 -1 22 4 18 11 35 -3 25 -20z m405 20 c12
-8 10 -10 -10 -10 l-25 -1 28 -20 c22 -17 25 -24 16 -35 -13 -16 -45 -19 -54
-4 -4 6 6 10 22 10 26 1 27 1 9 15 -10 8 -24 16 -30 18 -7 3 -7 9 3 20 16 20
20 20 41 7z m74 -11 c-3 -5 -10 -7 -15 -3 -5 3 -7 10 -3 15 3 5 10 7 15 3 5
-3 7 -10 3 -15z m274 -23 c-2 -21 -10 -34 -25 -41 -13 -5 -23 -13 -23 -17 0
-5 -4 -8 -10 -8 -5 0 -10 23 -10 51 0 41 3 50 15 46 8 -4 17 -2 20 3 13 21 36
-3 33 -34z m146 23 c-3 -5 -10 -7 -15 -3 -5 3 -7 10 -3 15 3 5 10 7 15 3 5 -3
7 -10 3 -15z m-814 -26 c0 -35 -2 -38 -30 -40 -24 -2 -31 2 -36 23 -8 30 11
54 42 54 21 0 24 -5 24 -37z m140 8 c0 -16 6 -31 13 -34 6 -2 9 -8 5 -12 -15
-16 -38 5 -38 34 0 16 -6 32 -12 34 -7 3 -3 6 10 6 18 1 22 -4 22 -28z m60 -2
c0 -38 24 -35 28 4 5 41 22 32 22 -11 0 -33 -3 -38 -22 -37 -13 0 -29 4 -35 8
-15 10 -17 67 -3 67 6 0 10 -14 10 -31z m541 12 c-6 -9 -3 -23 6 -38 9 -13 11
-23 5 -23 -6 0 -15 8 -21 18 -9 16 -11 16 -25 -3 -13 -17 -15 -18 -16 -3 0 9
5 20 10 23 6 4 7 13 1 24 -9 15 -6 18 19 18 23 0 27 -3 21 -16z m-921 -11 c0
-5 -11 -10 -25 -10 -14 0 -25 5 -25 10 0 6 11 10 25 10 14 0 25 -4 25 -10z
m574 -41 c-3 -5 -10 -7 -15 -3 -5 3 -7 10 -3 15 3 5 10 7 15 3 5 -3 7 -10 3
-15z m423 -13 c-14 -36 -26 -12 -18 34 1 2 6 -1 12 -7 7 -7 9 -19 6 -27z
m-1683 -96 c-1 -14 5 -29 13 -34 13 -7 13 -10 2 -17 -8 -5 -14 -19 -14 -31 0
-17 -6 -23 -25 -25 -14 -1 -18 0 -7 3 27 8 26 99 -1 121 -15 12 -14 13 8 11
20 -2 25 -8 24 -28z m251 -360 c3 -5 1 -10 -4 -10 -6 0 -11 5 -11 10 0 6 2 10
4 10 3 0 8 -4 11 -10z m165 -42 c0 -27 6 -45 18 -54 16 -12 15 -13 -5 -14 -21
0 -23 5 -23 50 0 39 -4 50 -16 50 -8 0 -13 4 -9 10 14 22 35 -3 35 -42z m280
43 c0 -5 -5 -11 -12 -13 -16 -6 -13 -99 4 -109 9 -6 7 -9 -9 -9 -19 0 -23 6
-23 30 0 17 -5 30 -12 30 -9 0 -9 3 0 12 7 7 12 22 12 33 0 12 3 25 7 28 10
10 33 8 33 -2z m-517 -36 l22 -8 -23 -4 c-29 -6 -28 -50 1 -45 9 2 17 -2 17
-8 0 -6 -10 -10 -22 -8 -16 2 -24 11 -27 28 -1 14 -8 29 -15 33 -8 6 -8 10 2
14 6 2 13 12 13 21 1 16 2 16 6 1 2 -10 14 -20 26 -24z m-153 -32 c0 -35 -2
-38 -29 -40 -22 -2 -32 3 -36 17 -9 29 12 60 40 60 22 0 25 -4 25 -37z m90 22
c0 -8 -4 -15 -10 -15 -5 0 -10 5 -10 11 0 8 -5 8 -15 -1 -8 -7 -15 -23 -15
-37 0 -14 -4 -21 -10 -18 -5 3 -10 21 -10 39 0 31 2 33 35 34 25 1 35 -3 35
-13z m130 -11 c0 -15 8 -33 18 -40 16 -12 15 -13 -5 -14 -20 0 -23 5 -23 34 0
19 -6 37 -12 39 -8 3 -6 6 5 6 12 1 17 -7 17 -25z m100 17 c-15 -4 -26 -15
-28 -29 -3 -21 6 -27 36 -23 6 1 12 -3 12 -9 0 -14 -43 -13 -58 2 -28 28 -5
69 38 67 l25 -1 -25 -7z m180 5 c0 -2 3 -11 6 -20 5 -12 0 -16 -21 -16 -17 0
-25 -4 -22 -12 2 -7 14 -12 26 -11 13 2 20 -1 16 -7 -8 -14 -38 -13 -53 2 -13
13 -16 50 -5 61 7 8 53 10 53 3z m-380 -174 c0 -13 7 -18 23 -18 16 1 23 -5
25 -22 5 -30 -14 -52 -44 -52 -22 0 -24 4 -24 55 0 30 5 55 10 55 6 0 10 -8
10 -18z m269 -29 c7 10 18 17 24 17 5 0 3 -8 -6 -18 -15 -17 -15 -19 0 -35 23
-23 8 -35 -16 -13 -18 17 -19 17 -24 -1 -3 -10 -5 9 -5 42 1 46 2 52 7 26 5
-31 7 -33 20 -18z m531 -6 c0 -51 -1 -53 -29 -55 -22 -2 -31 3 -36 18 -8 26
11 60 35 60 11 0 20 7 20 15 0 8 2 15 5 15 3 0 5 -24 5 -53z m290 35 c0 -13 7
-18 23 -18 18 1 22 -5 25 -36 2 -22 -1 -38 -7 -38 -6 0 -11 16 -11 36 0 31 -2
35 -15 24 -8 -7 -15 -23 -15 -36 0 -13 -4 -24 -10 -24 -5 0 -10 25 -10 55 0
30 5 55 10 55 6 0 10 -8 10 -18z m180 -7 c0 -8 8 -16 18 -16 16 -1 15 -2 -1
-6 -21 -5 -20 -50 1 -45 6 1 12 -2 12 -8 0 -5 -9 -10 -20 -10 -13 0 -22 9 -26
28 -4 15 -12 30 -18 34 -8 5 -7 8 2 8 6 0 12 7 12 15 0 8 5 15 10 15 6 0 10
-7 10 -15z m-1140 -43 c0 -36 -1 -38 -32 -37 -27 0 -34 4 -36 23 -5 30 14 52
44 52 21 0 24 -5 24 -38z m90 28 c0 -5 -10 -9 -22 -7 -17 1 -24 -4 -26 -20 -3
-22 5 -28 36 -24 6 1 12 -3 12 -9 0 -14 -43 -13 -58 2 -15 15 -15 41 0 56 14
14 58 16 58 2z m158 -42 c-3 -47 -6 -53 -27 -56 -13 -2 -28 2 -35 8 -8 9 -6
11 10 6 13 -4 26 -1 33 7 9 12 7 13 -13 10 -18 -4 -26 0 -31 16 -9 30 11 61
41 61 24 0 25 -2 22 -52z m92 37 c0 -8 -4 -15 -10 -15 -5 0 -10 5 -10 11 0 20
-20 -3 -29 -34 l-9 -32 -1 40 c-1 38 1 41 29 43 21 2 30 -2 30 -13z m75 -25
c0 -38 -24 -52 -50 -30 -31 25 -9 73 30 68 16 -2 20 -11 20 -38z m45 4 c0 -31
2 -35 15 -24 8 7 15 23 15 36 0 13 5 24 10 24 6 0 10 -18 10 -39 0 -38 -1 -39
-32 -38 -30 2 -33 5 -36 40 -2 21 1 37 7 37 6 0 11 -16 11 -36z m128 -6 c2
-22 -1 -38 -7 -38 -6 0 -11 16 -11 36 0 31 -2 35 -15 24 -8 -7 -15 -23 -15
-36 0 -13 -4 -24 -10 -24 -5 0 -10 18 -10 39 0 38 1 39 33 38 29 -2 32 -5 35
-39z m152 32 c0 -5 -7 -10 -15 -10 -8 0 -15 5 -15 10 0 6 7 10 15 10 8 0 15
-4 15 -10z m140 -7 c0 21 20 23 20 2 0 -8 5 -15 10 -15 6 0 10 8 10 17 0 9 3
14 6 10 9 -9 -5 -77 -16 -77 -6 0 -10 9 -10 20 0 11 -4 20 -10 20 -5 0 -10 -9
-10 -20 0 -11 -4 -20 -9 -20 -10 0 -21 34 -21 64 0 20 0 20 15 0 13 -17 14
-17 15 -1z m180 -11 c0 -15 5 -33 12 -40 9 -9 8 -12 -5 -12 -12 0 -17 8 -17
28 0 15 -5 33 -12 40 -9 9 -8 12 5 12 12 0 17 -8 17 -28z m198 6 c3 -14 -3
-18 -23 -18 -17 0 -25 -5 -22 -12 2 -7 14 -12 26 -11 11 2 21 -2 21 -7 0 -6
-11 -10 -25 -10 -32 0 -50 32 -35 61 14 24 53 22 58 -3z m62 12 c0 -5 -4 -10
-10 -10 -5 0 -10 5 -10 10 0 6 5 10 10 10 6 0 10 -4 10 -10z m-580 -60 c0 -5
-7 -10 -15 -10 -8 0 -15 5 -15 10 0 6 7 10 15 10 8 0 15 -4 15 -10z m580 -9
c0 -11 -4 -22 -9 -25 -5 -3 -8 6 -8 19 0 14 3 25 8 25 5 0 9 -9 9 -19z m-1230
-135 l0 -54 -32 1 c-30 2 -33 5 -33 32 0 22 6 33 23 40 12 5 22 15 22 22 0 7
5 13 10 13 6 0 10 -24 10 -54z m80 1 c0 -53 0 -54 -31 -55 -18 0 -32 5 -36 14
-8 21 13 64 32 64 8 0 15 7 15 15 0 8 5 15 10 15 6 0 10 -24 10 -53z m480 4
c0 -39 4 -51 18 -54 9 -3 -1 -5 -23 -5 -22 0 -34 2 -27 5 6 2 12 20 12 38 0
18 -6 36 -12 38 -10 4 -9 8 2 16 26 18 30 13 30 -38z m98 37 c17 -17 15 -73
-3 -88 -37 -31 -77 20 -56 73 11 29 38 36 59 15z m-833 -53 c0 -22 -6 -33 -22
-40 -13 -5 -23 -15 -23 -22 0 -7 -4 -13 -10 -13 -5 0 -10 24 -10 54 l0 54 33
-1 c29 -2 32 -5 32 -32z m85 -2 c0 -35 -2 -38 -30 -40 -36 -3 -48 17 -32 53 8
16 20 24 37 24 22 0 25 -4 25 -37z m220 9 c0 -15 5 -33 12 -40 9 -9 8 -12 -5
-12 -12 0 -17 8 -17 30 0 17 -4 30 -10 30 -5 0 -10 5 -10 10 0 6 7 10 15 10
10 0 15 -10 15 -28z m118 -14 c2 -22 -1 -38 -7 -38 -6 0 -11 14 -11 31 0 38
-24 35 -28 -4 -5 -42 -22 -32 -22 12 0 38 1 39 33 38 29 -2 32 -5 35 -39z m80
-10 c-3 -52 -4 -53 -35 -56 -20 -2 -33 1 -33 8 0 7 8 9 19 5 10 -3 23 1 30 8
9 12 7 13 -14 9 -30 -5 -43 19 -27 54 8 16 20 24 37 24 25 0 26 -2 23 -52z
m62 42 c0 -5 -4 -10 -10 -10 -5 0 -10 5 -10 10 0 6 5 10 10 10 6 0 10 -4 10
-10z m355 -25 c0 -22 -6 -33 -22 -40 -13 -5 -23 -15 -23 -22 0 -7 -4 -13 -10
-13 -5 0 -10 24 -10 54 l0 54 33 -1 c29 -2 32 -5 32 -32z m70 25 c18 15 20 -1
3 -18 -9 -9 -7 -16 7 -32 19 -21 8 -29 -13 -8 -9 9 -15 9 -24 0 -21 -21 -32
-13 -13 8 14 16 16 23 7 32 -17 17 -15 33 3 18 12 -10 18 -10 30 0z m80 0 c3
-5 -1 -10 -10 -10 -9 0 -13 5 -10 10 3 6 8 10 10 10 2 0 7 -4 10 -10z m-505
-60 c0 -5 -4 -10 -10 -10 -5 0 -10 5 -10 10 0 6 5 10 10 10 6 0 10 -4 10 -10z
m508 -12 c-4 -30 -23 -33 -24 -3 -1 16 3 25 13 25 9 0 13 -8 11 -22z"/>
<path d="M532 3128 c-7 -7 -12 -18 -12 -25 0 -18 29 -16 37 3 8 21 -10 37 -25
22z"/>
<path d="M774 2935 c-4 -8 -3 -23 0 -32 6 -15 8 -15 23 -1 16 17 12 48 -7 48
-6 0 -13 -7 -16 -15z"/>
<path d="M944 2935 c-4 -8 -3 -23 0 -32 6 -15 8 -15 22 -2 8 9 12 23 8 32 -8
21 -23 22 -30 2z"/>
<path d="M1365 2940 c-3 -5 1 -10 9 -10 9 0 16 5 16 10 0 6 -4 10 -9 10 -6 0
-13 -4 -16 -10z"/>
<path d="M1447 2943 c-4 -3 -7 -15 -7 -25 0 -22 26 -24 34 -2 10 25 -10 45
-27 27z"/>
<path d="M775 2750 c-3 -5 1 -10 9 -10 9 0 16 5 16 10 0 6 -4 10 -9 10 -6 0
-13 -4 -16 -10z"/>
<path d="M1280 2741 c-7 -13 -7 -22 0 -26 15 -9 30 4 30 26 0 25 -16 25 -30 0z"/>
<path d="M1614 2745 c-4 -8 -3 -23 0 -32 6 -15 8 -15 23 -1 16 17 12 48 -7 48
-6 0 -13 -7 -16 -15z"/>
<path d="M2120 2745 c-7 -8 -9 -22 -6 -31 5 -13 9 -14 21 -4 17 14 20 36 6 44
-5 3 -14 -1 -21 -9z"/>
<path d="M2212 2747 c-17 -21 -12 -50 6 -38 8 4 12 19 10 31 -3 21 -4 22 -16
7z"/>
<path d="M2285 2750 c-3 -5 3 -10 15 -10 12 0 18 5 15 10 -3 6 -10 10 -15 10
-5 0 -12 -4 -15 -10z"/>
<path d="M2542 2748 c-7 -7 -12 -18 -12 -25 0 -18 29 -16 37 3 8 21 -10 37
-25 22z"/>
<path d="M2705 2750 c-3 -5 3 -10 15 -10 12 0 18 5 15 10 -3 6 -10 10 -15 10
-5 0 -12 -4 -15 -10z"/>
<path d="M2036 2561 c-4 -7 -5 -15 -2 -18 9 -9 19 4 14 18 -4 11 -6 11 -12 0z"/>
<path d="M775 2560 c-3 -5 1 -10 9 -10 9 0 16 5 16 10 0 6 -4 10 -9 10 -6 0
-13 -4 -16 -10z"/>
<path d="M1025 2560 c-3 -5 1 -10 9 -10 9 0 16 5 16 10 0 6 -4 10 -9 10 -6 0
-13 -4 -16 -10z"/>
<path d="M1367 2553 c-4 -3 -7 -15 -7 -25 0 -26 24 -17 28 10 3 21 -8 29 -21
15z"/>
<path d="M1452 2558 c-16 -16 -15 -38 2 -38 17 0 30 30 18 42 -4 4 -13 3 -20
-4z"/>
<path d="M1793 2563 c-18 -7 -16 -43 2 -43 9 0 15 9 15 25 0 14 -1 25 -2 24
-2 0 -9 -3 -15 -6z"/>
<path d="M2114 2545 c-3 -8 -3 -19 1 -25 9 -14 35 6 35 26 0 19 -29 18 -36 -1z"/>
<path d="M690 1964 c0 -31 23 -28 28 4 2 15 -2 22 -12 22 -11 0 -16 -9 -16
-26z"/>
<path d="M860 1774 c0 -31 23 -28 28 4 2 15 -2 22 -12 22 -11 0 -16 -9 -16
-26z"/>
<path d="M1360 1821 c0 -5 -3 -17 -7 -27 -9 -23 13 -10 27 17 9 15 7 19 -5 19
-8 0 -15 -4 -15 -9z"/>
<path d="M1383 1788 c-21 -28 -24 -38 -9 -38 8 0 18 9 21 21 8 25 2 34 -12 17z"/>
<path d="M1440 1803 c0 -26 1 -26 15 -7 19 25 19 34 0 34 -10 0 -15 -10 -15
-27z"/>
<path d="M1510 1821 c0 -6 5 -13 10 -16 6 -3 10 1 10 9 0 9 -4 16 -10 16 -5 0
-10 -4 -10 -9z"/>
<path d="M1461 1782 c-14 -26 -7 -42 10 -25 6 6 9 19 7 29 -3 17 -5 17 -17 -4z"/>
<path d="M1555 1771 c-3 -5 -1 -12 5 -16 5 -3 10 1 10 9 0 18 -6 21 -15 7z"/>
<path d="M770 1600 c0 -5 7 -10 15 -10 8 0 15 5 15 10 0 6 -7 10 -15 10 -8 0
-15 -4 -15 -10z"/>
<path d="M947 1603 c-4 -3 -7 -15 -7 -25 0 -26 24 -17 28 10 3 21 -8 29 -21
15z"/>
<path d="M1367 1603 c-4 -3 -7 -15 -7 -25 0 -26 24 -17 28 10 3 21 -8 29 -21
15z"/>
<path d="M1610 1585 c0 -20 4 -26 18 -23 9 2 17 12 17 23 0 11 -8 21 -17 23
-14 3 -18 -3 -18 -23z"/>
<path d="M697 1413 c-4 -3 -7 -15 -7 -25 0 -26 24 -17 28 10 3 21 -8 29 -21
15z"/>
<path d="M947 1413 c-4 -3 -7 -15 -7 -25 0 -26 24 -17 28 10 3 21 -8 29 -21
15z"/>
<path d="M1447 1413 c-12 -12 -7 -43 7 -43 13 0 26 20 26 41 0 10 -23 12 -33
2z"/>
<path d="M770 1395 c0 -20 4 -26 18 -23 9 2 17 12 17 23 0 11 -8 21 -17 23
-14 3 -18 -3 -18 -23z"/>
<path d="M1025 1410 c-3 -5 1 -10 9 -10 9 0 16 5 16 10 0 6 -4 10 -9 10 -6 0
-13 -4 -16 -10z"/>
<path d="M2037 1413 c-4 -3 -7 -15 -7 -25 0 -22 26 -24 34 -2 10 25 -10 45
-27 27z"/>
<path d="M1367 1413 c-4 -3 -7 -15 -7 -25 0 -26 24 -17 28 10 3 21 -8 29 -21
15z"/>
<path d="M533 843 c-18 -6 -16 -43 1 -43 16 0 30 30 19 40 -4 4 -14 5 -20 3z"/>
<path d="M1030 840 c0 -5 7 -10 16 -10 8 0 12 5 9 10 -3 6 -10 10 -16 10 -5 0
-9 -4 -9 -10z"/>
<path d="M690 625 c0 -18 4 -23 15 -19 8 4 15 15 15 25 0 10 -7 19 -15 19 -9
0 -15 -9 -15 -25z"/>
<path d="M1452 648 c-7 -7 -12 -18 -12 -25 0 -18 29 -16 37 3 8 21 -10 37 -25
22z"/>
<path d="M783 653 c-18 -7 -16 -43 2 -43 9 0 15 9 15 25 0 14 -1 25 -2 24 -2
0 -9 -3 -15 -6z"/>
<path d="M1032 648 c-16 -16 -15 -38 2 -38 17 0 30 30 18 42 -4 4 -13 3 -20
-4z"/>
<path d="M1194 645 c-4 -8 -3 -23 0 -32 6 -15 8 -15 23 -1 16 17 12 48 -7 48
-6 0 -13 -7 -16 -15z"/>
<path d="M2035 650 c-3 -5 1 -10 9 -10 9 0 16 5 16 10 0 6 -4 10 -9 10 -6 0
-13 -4 -16 -10z"/>
<path d="M873 463 c-7 -3 -13 -17 -13 -31 0 -24 1 -25 16 -10 18 18 16 47 -3
41z"/>
<path d="M953 463 c-18 -7 -16 -43 2 -43 9 0 15 9 15 25 0 14 -1 25 -2 24 -2
0 -9 -3 -15 -6z"/>
<path d="M1527 493 c-4 -3 -7 -18 -7 -32 0 -24 1 -24 15 -5 22 29 15 61 -8 37z"/>
<path d="M1541 442 c-14 -26 -7 -42 10 -25 6 6 9 19 7 29 -3 17 -5 17 -17 -4z"/>
<path d="M697 453 c-4 -3 -7 -15 -7 -25 0 -26 24 -17 28 10 3 21 -8 29 -21 15z"/>
<path d="M783 463 c-18 -7 -16 -43 2 -43 9 0 15 9 15 25 0 14 -1 25 -2 24 -2
0 -9 -3 -15 -6z"/>
<path d="M1203 463 c-15 -5 -17 -39 -4 -48 13 -7 35 35 24 45 -4 4 -14 5 -20
3z"/>
<path d="M1617 453 c-11 -10 -8 -43 3 -43 12 0 31 35 23 44 -8 8 -18 8 -26 -1z"/>
<path d="M6103 2667 c-29 -66 -51 -122 -49 -124 2 -2 49 -2 104 -1 l100 3 -50
120 c-27 66 -51 121 -52 121 0 1 -25 -52 -53 -119z"/>
</g>
</svg>
